<mxfile host="app.diagrams.net" modified="2021-01-08T11:18:37.287Z" agent="5.0 (Windows)" etag="34AoVrazpzDuyp9Iqgkr" version="14.1.8" type="github">
  <diagram id="7vv8aJOuIRNofFbkinTi" name="Page-1">
    <mxGraphModel dx="2062" dy="1123" grid="1" gridSize="10" guides="1" tooltips="1" connect="1" arrows="1" fold="1" page="1" pageScale="1" pageWidth="827" pageHeight="1169" math="0" shadow="0">
      <root>
        <mxCell id="0" />
        <mxCell id="1" parent="0" />
        <mxCell id="mgVR8EuRZ8aXLEWtIeHX-27" style="edgeStyle=orthogonalEdgeStyle;rounded=0;orthogonalLoop=1;jettySize=auto;html=1;exitX=1;exitY=0.5;exitDx=0;exitDy=0;endArrow=none;endFill=0;" parent="1" source="mgVR8EuRZ8aXLEWtIeHX-40" target="mgVR8EuRZ8aXLEWtIeHX-2" edge="1">
          <mxGeometry relative="1" as="geometry">
            <Array as="points">
              <mxPoint x="460" y="540" />
              <mxPoint x="460" y="540" />
            </Array>
          </mxGeometry>
        </mxCell>
        <mxCell id="mgVR8EuRZ8aXLEWtIeHX-34" style="edgeStyle=orthogonalEdgeStyle;rounded=0;orthogonalLoop=1;jettySize=auto;html=1;exitX=0.75;exitY=0;exitDx=0;exitDy=0;entryX=0.25;entryY=0;entryDx=0;entryDy=0;endArrow=none;endFill=0;" parent="1" source="mgVR8EuRZ8aXLEWtIeHX-1" target="mgVR8EuRZ8aXLEWtIeHX-2" edge="1">
          <mxGeometry relative="1" as="geometry">
            <Array as="points">
              <mxPoint x="198" y="460" />
              <mxPoint x="675" y="460" />
            </Array>
          </mxGeometry>
        </mxCell>
        <mxCell id="mgVR8EuRZ8aXLEWtIeHX-1" value="&lt;font style=&quot;font-size: 18px&quot;&gt;BUYER&lt;/font&gt;" style="rounded=1;whiteSpace=wrap;html=1;" parent="1" vertex="1">
          <mxGeometry x="130" y="495" width="90" height="90" as="geometry" />
        </mxCell>
        <mxCell id="mgVR8EuRZ8aXLEWtIeHX-2" value="&lt;font style=&quot;font-size: 18px&quot;&gt;SELLER&lt;/font&gt;" style="rounded=1;whiteSpace=wrap;html=1;" parent="1" vertex="1">
          <mxGeometry x="650" y="495" width="100" height="95" as="geometry" />
        </mxCell>
        <mxCell id="mgVR8EuRZ8aXLEWtIeHX-8" style="edgeStyle=orthogonalEdgeStyle;orthogonalLoop=1;jettySize=auto;html=1;exitX=0.5;exitY=1;exitDx=0;exitDy=0;rounded=0;endArrow=none;endFill=0;entryX=0.5;entryY=0;entryDx=0;entryDy=0;" parent="1" source="mgVR8EuRZ8aXLEWtIeHX-6" target="mgVR8EuRZ8aXLEWtIeHX-1" edge="1">
          <mxGeometry relative="1" as="geometry">
            <mxPoint x="200" y="390" as="targetPoint" />
            <Array as="points">
              <mxPoint x="555" y="355" />
              <mxPoint x="175" y="355" />
            </Array>
          </mxGeometry>
        </mxCell>
        <mxCell id="mgVR8EuRZ8aXLEWtIeHX-6" value="" style="ellipse;whiteSpace=wrap;html=1;aspect=fixed;fillColor=#000000;" parent="1" vertex="1">
          <mxGeometry x="550" y="350" width="10" height="10" as="geometry" />
        </mxCell>
        <mxCell id="mgVR8EuRZ8aXLEWtIeHX-16" style="edgeStyle=orthogonalEdgeStyle;rounded=0;orthogonalLoop=1;jettySize=auto;html=1;exitX=0.5;exitY=1;exitDx=0;exitDy=0;entryX=0.5;entryY=0;entryDx=0;entryDy=0;endArrow=none;endFill=0;" parent="1" source="mgVR8EuRZ8aXLEWtIeHX-13" target="mgVR8EuRZ8aXLEWtIeHX-2" edge="1">
          <mxGeometry relative="1" as="geometry">
            <Array as="points">
              <mxPoint x="655" y="355" />
              <mxPoint x="705" y="355" />
              <mxPoint x="705" y="495" />
            </Array>
          </mxGeometry>
        </mxCell>
        <mxCell id="mgVR8EuRZ8aXLEWtIeHX-13" value="" style="ellipse;whiteSpace=wrap;html=1;aspect=fixed;fillColor=#000000;" parent="1" vertex="1">
          <mxGeometry x="650" y="350" width="10" height="10" as="geometry" />
        </mxCell>
        <mxCell id="mgVR8EuRZ8aXLEWtIeHX-17" value="&lt;font style=&quot;font-size: 14px&quot;&gt;Details2buy&lt;/font&gt;" style="text;html=1;strokeColor=none;fillColor=none;align=center;verticalAlign=middle;whiteSpace=wrap;rounded=0;" parent="1" vertex="1">
          <mxGeometry x="490" y="330" width="40" height="20" as="geometry" />
        </mxCell>
        <mxCell id="mgVR8EuRZ8aXLEWtIeHX-21" value="&lt;font style=&quot;font-size: 18px&quot;&gt;SHIPPER&lt;/font&gt;" style="rounded=1;whiteSpace=wrap;html=1;" parent="1" vertex="1">
          <mxGeometry x="560" y="310" width="90" height="90" as="geometry" />
        </mxCell>
        <mxCell id="mgVR8EuRZ8aXLEWtIeHX-30" value="" style="ellipse;whiteSpace=wrap;html=1;aspect=fixed;fillColor=#000000;" parent="1" vertex="1">
          <mxGeometry x="700" y="490" width="10" height="10" as="geometry" />
        </mxCell>
        <mxCell id="mgVR8EuRZ8aXLEWtIeHX-31" value="" style="ellipse;whiteSpace=wrap;html=1;aspect=fixed;fillColor=#000000;" parent="1" vertex="1">
          <mxGeometry x="640" y="520" width="10" height="10" as="geometry" />
        </mxCell>
        <mxCell id="mgVR8EuRZ8aXLEWtIeHX-42" style="edgeStyle=orthogonalEdgeStyle;rounded=0;orthogonalLoop=1;jettySize=auto;html=1;exitX=1;exitY=0.5;exitDx=0;exitDy=0;entryX=0;entryY=0.5;entryDx=0;entryDy=0;endArrow=none;endFill=0;" parent="1" source="mgVR8EuRZ8aXLEWtIeHX-38" target="mgVR8EuRZ8aXLEWtIeHX-31" edge="1">
          <mxGeometry relative="1" as="geometry">
            <Array as="points">
              <mxPoint x="230" y="490" />
              <mxPoint x="640" y="490" />
            </Array>
          </mxGeometry>
        </mxCell>
        <mxCell id="mgVR8EuRZ8aXLEWtIeHX-38" value="" style="ellipse;whiteSpace=wrap;html=1;aspect=fixed;fillColor=#000000;" parent="1" vertex="1">
          <mxGeometry x="220" y="520" width="10" height="10" as="geometry" />
        </mxCell>
        <mxCell id="mgVR8EuRZ8aXLEWtIeHX-40" value="" style="ellipse;whiteSpace=wrap;html=1;aspect=fixed;fillColor=#000000;" parent="1" vertex="1">
          <mxGeometry x="220" y="535" width="10" height="10" as="geometry" />
        </mxCell>
        <mxCell id="mgVR8EuRZ8aXLEWtIeHX-44" style="edgeStyle=orthogonalEdgeStyle;rounded=0;orthogonalLoop=1;jettySize=auto;html=1;exitX=1;exitY=0.75;exitDx=0;exitDy=0;entryX=0;entryY=0.75;entryDx=0;entryDy=0;endArrow=none;endFill=0;" parent="1" source="mgVR8EuRZ8aXLEWtIeHX-1" edge="1">
          <mxGeometry relative="1" as="geometry">
            <mxPoint x="220" y="562.5" as="sourcePoint" />
            <mxPoint x="220.35761654557382" y="566.8569533817706" as="targetPoint" />
            <Array as="points" />
          </mxGeometry>
        </mxCell>
        <mxCell id="mgVR8EuRZ8aXLEWtIeHX-47" value="" style="ellipse;whiteSpace=wrap;html=1;aspect=fixed;fillColor=#000000;" parent="1" vertex="1">
          <mxGeometry x="640" y="535" width="10" height="10" as="geometry" />
        </mxCell>
        <mxCell id="mgVR8EuRZ8aXLEWtIeHX-49" value="" style="ellipse;whiteSpace=wrap;html=1;aspect=fixed;fillColor=#000000;" parent="1" vertex="1">
          <mxGeometry x="190" y="490" width="10" height="10" as="geometry" />
        </mxCell>
        <mxCell id="mgVR8EuRZ8aXLEWtIeHX-50" value="" style="ellipse;whiteSpace=wrap;html=1;aspect=fixed;fillColor=#000000;" parent="1" vertex="1">
          <mxGeometry x="170" y="490" width="10" height="10" as="geometry" />
        </mxCell>
        <mxCell id="mgVR8EuRZ8aXLEWtIeHX-51" value="" style="ellipse;whiteSpace=wrap;html=1;aspect=fixed;fillColor=#000000;" parent="1" vertex="1">
          <mxGeometry x="190" y="580" width="10" height="10" as="geometry" />
        </mxCell>
        <mxCell id="mgVR8EuRZ8aXLEWtIeHX-52" value="" style="ellipse;whiteSpace=wrap;html=1;aspect=fixed;fillColor=#000000;" parent="1" vertex="1">
          <mxGeometry x="680" y="590" width="10" height="10" as="geometry" />
        </mxCell>
        <mxCell id="mgVR8EuRZ8aXLEWtIeHX-53" style="edgeStyle=orthogonalEdgeStyle;rounded=0;orthogonalLoop=1;jettySize=auto;html=1;exitX=0.75;exitY=1;exitDx=0;exitDy=0;entryX=0.25;entryY=1;entryDx=0;entryDy=0;endArrow=none;endFill=0;" parent="1" source="mgVR8EuRZ8aXLEWtIeHX-1" target="mgVR8EuRZ8aXLEWtIeHX-52" edge="1">
          <mxGeometry relative="1" as="geometry">
            <mxPoint x="197.5" y="585" as="sourcePoint" />
            <mxPoint x="675" y="590" as="targetPoint" />
            <Array as="points">
              <mxPoint x="198" y="630" />
              <mxPoint x="683" y="630" />
            </Array>
          </mxGeometry>
        </mxCell>
        <mxCell id="mgVR8EuRZ8aXLEWtIeHX-54" value="&lt;font style=&quot;font-size: 14px&quot;&gt;Details2buy&lt;/font&gt;" style="text;html=1;strokeColor=none;fillColor=none;align=center;verticalAlign=middle;whiteSpace=wrap;rounded=0;rotation=0;" parent="1" vertex="1">
          <mxGeometry x="110" y="460" width="40" height="20" as="geometry" />
        </mxCell>
        <mxCell id="mgVR8EuRZ8aXLEWtIeHX-55" value="&lt;div&gt;&lt;font style=&quot;font-size: 14px&quot;&gt;order2ship&lt;/font&gt;&lt;/div&gt;" style="text;html=1;strokeColor=none;fillColor=none;align=center;verticalAlign=middle;whiteSpace=wrap;rounded=0;" parent="1" vertex="1">
          <mxGeometry x="680" y="330" width="40" height="20" as="geometry" />
        </mxCell>
        <mxCell id="mgVR8EuRZ8aXLEWtIeHX-57" value="&lt;div&gt;&lt;font style=&quot;font-size: 14px&quot;&gt;order2ship&lt;/font&gt;&lt;/div&gt;" style="text;html=1;strokeColor=none;fillColor=none;align=center;verticalAlign=middle;whiteSpace=wrap;rounded=0;" parent="1" vertex="1">
          <mxGeometry x="720" y="460" width="40" height="20" as="geometry" />
        </mxCell>
        <mxCell id="mgVR8EuRZ8aXLEWtIeHX-58" value="" style="endArrow=none;html=1;" parent="1" edge="1">
          <mxGeometry width="50" height="50" relative="1" as="geometry">
            <mxPoint x="480" y="330" as="sourcePoint" />
            <mxPoint x="540" y="330" as="targetPoint" />
          </mxGeometry>
        </mxCell>
        <mxCell id="mgVR8EuRZ8aXLEWtIeHX-59" value="" style="endArrow=none;html=1;" parent="1" edge="1">
          <mxGeometry width="50" height="50" relative="1" as="geometry">
            <mxPoint x="710" y="460" as="sourcePoint" />
            <mxPoint x="770" y="460" as="targetPoint" />
          </mxGeometry>
        </mxCell>
        <mxCell id="MRQlOYS1lgztAUOoA495-1" value="ask2sell" style="text;html=1;strokeColor=none;fillColor=none;align=center;verticalAlign=middle;whiteSpace=wrap;rounded=0;" vertex="1" parent="1">
          <mxGeometry x="200" y="430" width="40" height="20" as="geometry" />
        </mxCell>
        <mxCell id="MRQlOYS1lgztAUOoA495-4" value="" style="endArrow=none;html=1;exitX=0;exitY=0;exitDx=0;exitDy=0;entryX=1;entryY=0;entryDx=0;entryDy=0;" edge="1" parent="1" source="MRQlOYS1lgztAUOoA495-1" target="MRQlOYS1lgztAUOoA495-1">
          <mxGeometry width="50" height="50" relative="1" as="geometry">
            <mxPoint x="210" y="410" as="sourcePoint" />
            <mxPoint x="250" y="410" as="targetPoint" />
            <Array as="points" />
          </mxGeometry>
        </mxCell>
        <mxCell id="MRQlOYS1lgztAUOoA495-5" value="&lt;div&gt;ask2sell&lt;/div&gt;" style="text;html=1;strokeColor=none;fillColor=none;align=center;verticalAlign=middle;whiteSpace=wrap;rounded=0;" vertex="1" parent="1">
          <mxGeometry x="640" y="430" width="40" height="20" as="geometry" />
        </mxCell>
        <mxCell id="MRQlOYS1lgztAUOoA495-6" value="quete2buy" style="text;html=1;strokeColor=none;fillColor=none;align=center;verticalAlign=middle;whiteSpace=wrap;rounded=0;" vertex="1" parent="1">
          <mxGeometry x="230" y="470" width="40" height="20" as="geometry" />
        </mxCell>
        <mxCell id="MRQlOYS1lgztAUOoA495-7" value="quete2buy" style="text;html=1;strokeColor=none;fillColor=none;align=center;verticalAlign=middle;whiteSpace=wrap;rounded=0;" vertex="1" parent="1">
          <mxGeometry x="600" y="470" width="40" height="20" as="geometry" />
        </mxCell>
        <mxCell id="MRQlOYS1lgztAUOoA495-8" value="accept2sell" style="text;html=1;strokeColor=none;fillColor=none;align=center;verticalAlign=middle;whiteSpace=wrap;rounded=0;" vertex="1" parent="1">
          <mxGeometry x="245" y="520" width="40" height="20" as="geometry" />
        </mxCell>
        <mxCell id="MRQlOYS1lgztAUOoA495-9" value="accept2sell" style="text;html=1;strokeColor=none;fillColor=none;align=center;verticalAlign=middle;whiteSpace=wrap;rounded=0;" vertex="1" parent="1">
          <mxGeometry x="580" y="520" width="40" height="20" as="geometry" />
        </mxCell>
        <mxCell id="MRQlOYS1lgztAUOoA495-10" value="reject2sell" style="text;html=1;strokeColor=none;fillColor=none;align=center;verticalAlign=middle;whiteSpace=wrap;rounded=0;rotation=0;" vertex="1" parent="1">
          <mxGeometry x="205" y="600" width="40" height="20" as="geometry" />
        </mxCell>
        <mxCell id="MRQlOYS1lgztAUOoA495-11" value="reject2sell" style="text;html=1;strokeColor=none;fillColor=none;align=center;verticalAlign=middle;whiteSpace=wrap;rounded=0;" vertex="1" parent="1">
          <mxGeometry x="620" y="600" width="40" height="20" as="geometry" />
        </mxCell>
        <mxCell id="MRQlOYS1lgztAUOoA495-13" value="" style="endArrow=none;html=1;exitX=0;exitY=0;exitDx=0;exitDy=0;" edge="1" parent="1" source="MRQlOYS1lgztAUOoA495-8">
          <mxGeometry width="50" height="50" relative="1" as="geometry">
            <mxPoint x="390" y="590" as="sourcePoint" />
            <mxPoint x="290" y="520" as="targetPoint" />
          </mxGeometry>
        </mxCell>
        <mxCell id="MRQlOYS1lgztAUOoA495-14" value="" style="endArrow=none;html=1;exitX=0;exitY=0;exitDx=0;exitDy=0;entryX=1;entryY=0;entryDx=0;entryDy=0;" edge="1" parent="1" source="MRQlOYS1lgztAUOoA495-10" target="MRQlOYS1lgztAUOoA495-10">
          <mxGeometry width="50" height="50" relative="1" as="geometry">
            <mxPoint x="390" y="590" as="sourcePoint" />
            <mxPoint x="440" y="540" as="targetPoint" />
          </mxGeometry>
        </mxCell>
        <mxCell id="MRQlOYS1lgztAUOoA495-15" value="" style="endArrow=none;html=1;entryX=1;entryY=0;entryDx=0;entryDy=0;exitX=0;exitY=0;exitDx=0;exitDy=0;" edge="1" parent="1" source="MRQlOYS1lgztAUOoA495-7" target="MRQlOYS1lgztAUOoA495-7">
          <mxGeometry width="50" height="50" relative="1" as="geometry">
            <mxPoint x="390" y="590" as="sourcePoint" />
            <mxPoint x="440" y="540" as="targetPoint" />
          </mxGeometry>
        </mxCell>
      </root>
    </mxGraphModel>
  </diagram>
</mxfile>
